<svg width="40" height="40" viewBox="0 0 40 40" fill="none" xmlns="http://www.w3.org/2000/svg">
<path fill-rule="evenodd" clip-rule="evenodd" d="M22.8584 0.215547C22.664 0.409922 22.6382 0.501172 22.5967 1.14148C22.5123 2.4443 22.0636 3.4357 21.0194 4.62656L20.4221 5.30781L14.547 5.32969L8.67188 5.35156L8.26016 5.58594C7.93055 5.77352 7.09461 6.65766 4.07156 10.0159C1.9943 12.3234 0.228437 14.3449 0.147344 14.508C0.00492187 14.7948 0 15.2003 0 26.6797V38.5547L0.168906 38.8672C0.368047 39.2355 0.751094 39.6124 1.13281 39.8155C1.39664 39.9559 1.91539 39.9609 15.9396 39.9609H30.4729L30.8398 39.7656C31.4006 39.4672 39.4445 32.1792 39.7081 31.7308L39.9219 31.3672V19.0625V6.75781L39.7487 6.43414C39.6536 6.25617 39.4266 5.98289 39.2444 5.82695C38.6407 5.31016 38.6668 5.3125 33.4233 5.3125C30.8315 5.3125 28.7109 5.29391 28.7109 5.27117C28.7109 5.24852 28.8124 5.02875 28.9364 4.78289C29.4593 3.74609 29.8391 2.35383 29.9333 1.12812C29.9831 0.480391 29.9827 0.478516 29.7437 0.239531C29.6077 0.103437 29.4221 0 29.314 0C29.1695 0 27.551 0.911172 26.0725 1.82492C26.0376 1.84656 25.448 1.44523 24.7623 0.933203C23.3853 -0.095 23.2282 -0.154297 22.8584 0.215547ZM24.8607 2.67867C25.2997 3.00336 25.7277 3.29094 25.812 3.31766C26.0188 3.38336 26.3123 3.24695 27.4609 2.55164C27.998 2.22656 28.4495 1.99461 28.464 2.03633C28.4786 2.07805 28.3998 2.4282 28.2891 2.81445C28.0783 3.54914 27.7581 4.24984 27.3618 4.84375C27.2327 5.03711 25.2955 7.03227 23.0568 9.27734L18.9864 13.3594H16.6056H14.2249L18.252 9.31641C20.5076 7.05195 22.4362 5.05008 22.6361 4.76562C23.2014 3.96133 23.5486 3.21289 23.7892 2.27938C23.852 2.03578 23.9023 1.96203 23.9694 2.01492C24.0206 2.05523 24.4216 2.35391 24.8607 2.67867ZM18.9453 6.69891C18.9453 6.73094 17.4601 8.24266 15.6448 10.0583L12.3445 13.3594H7.63703C5.04797 13.3594 2.92969 13.3388 2.92969 13.3137C2.92969 13.2232 8.65227 6.91086 8.85492 6.77773C9.04688 6.65172 9.43531 6.64141 14.0039 6.64102C16.7217 6.64078 18.9453 6.66688 18.9453 6.69891ZM37.6172 6.69953C37.6172 6.73195 36.0917 8.28359 34.2273 10.1477L30.8374 13.5369L30.5828 13.4481C30.4037 13.3857 28.9415 13.3594 25.6524 13.3594C23.0807 13.3594 20.9766 13.3331 20.9766 13.3011C20.9766 13.2691 22.4618 11.7573 24.277 9.94172L27.5774 6.64062H32.5973C35.3583 6.64062 37.6172 6.66711 37.6172 6.69953ZM38.4965 31.1527C38.4211 31.2496 36.9355 32.6123 35.1953 34.1809L32.0312 37.033L31.9922 25.9579C31.9634 17.781 31.9294 14.8317 31.8623 14.6875C31.7748 14.4993 31.8959 14.3675 35.1827 11.0739L38.5938 7.65555L38.6137 19.3161C38.6326 30.3334 38.6261 30.9862 38.4965 31.1527ZM11.9922 19.838V24.9887L12.198 25.1505C12.6191 25.4817 12.7661 25.4119 14.4045 24.1014C15.2371 23.4355 15.9402 22.8907 15.967 22.8908C15.9937 22.8909 16.6969 23.4358 17.5295 24.1017C18.8184 25.1327 19.083 25.3125 19.3104 25.3125C19.4898 25.3125 19.6404 25.2495 19.7691 25.1207L19.9609 24.929V19.8082V14.6875H25.0737H30.1866L30.4058 14.876L30.625 15.0646L30.6475 26.419C30.6599 32.6639 30.6488 37.8916 30.6228 38.0361C30.5969 38.1805 30.4916 38.3827 30.389 38.4853L30.2024 38.6719H15.9741H1.74578L1.51742 38.4435L1.28906 38.2152V26.7209C1.28906 16.7292 1.30414 15.1974 1.40461 15.0032C1.46812 14.8803 1.56484 14.7618 1.61945 14.7398C1.67406 14.7178 4.03023 14.697 6.85547 14.6937L11.9922 14.6875V19.838ZM18.6328 18.9875V23.2875L17.6622 22.5048C16.4467 21.5247 16.1573 21.3281 15.9294 21.3281C15.8147 21.3281 15.3154 21.6734 14.5735 22.2656C13.9277 22.7812 13.3815 23.2031 13.3598 23.2031C13.338 23.2031 13.3203 21.2871 13.3203 18.9453V14.6875H15.9766H18.6328V18.9875ZM3.33195 32.1637C3.18797 32.2347 2.97703 32.4334 2.8632 32.6052C2.65914 32.9133 2.65586 32.9398 2.63117 34.4862C2.6157 35.4499 2.63828 36.1636 2.68969 36.3371C2.80742 36.7345 3.06016 37.027 3.43133 37.1956C3.73195 37.3321 4.06406 37.3403 9.29688 37.3403C14.5297 37.3403 14.8618 37.3321 15.1624 37.1956C15.5332 37.0272 15.7859 36.735 15.9048 36.3371C15.9572 36.1616 15.9794 35.4606 15.9634 34.4863C15.9378 32.9386 15.9348 32.9136 15.7296 32.6039C15.3303 32.0011 15.6687 32.031 9.28508 32.033C4.15492 32.0346 3.56797 32.0475 3.33195 32.1637ZM26.2529 32.7397C25.4012 33.5635 25.2326 33.8438 25.3629 34.2177C25.4233 34.3908 25.5356 34.5053 25.721 34.5828C25.9673 34.6857 26.0172 34.6821 26.2871 34.5414L26.5831 34.3871L26.6283 34.6657C26.7735 35.5604 27.9297 35.5114 27.9297 34.6106V34.2922L28.1618 34.4638C28.6452 34.8212 29.2578 34.5558 29.2578 33.989C29.2578 33.7361 29.1745 33.6252 28.4167 32.8698C27.6447 32.1002 27.5513 32.0312 27.2804 32.0312C27.0144 32.0312 26.9127 32.1014 26.2529 32.7397ZM14.6484 34.6875V36.0156H9.29688H3.94531V34.6875V33.3594H9.29688H14.6484V34.6875ZM25.4688 36.2642C25.2149 36.5659 25.2453 36.8988 25.5512 37.168C25.7434 37.3371 25.8072 37.3438 27.2348 37.3438C29.0913 37.3438 29.2578 37.2826 29.2578 36.6009C29.2578 36.4116 29.2011 36.2948 29.052 36.1776C28.8591 36.0259 28.7463 36.0156 27.262 36.0156H25.678L25.4688 36.2642Z" fill="url(#paint0_linear_1378_318)"/>
<defs>
<linearGradient id="paint0_linear_1378_318" x1="0" y1="0" x2="41.926" y2="37.7882" gradientUnits="userSpaceOnUse">
<stop stop-color="#594372"/>
<stop offset="1" stop-color="#7A5B9E"/>
</linearGradient>
</defs>
</svg>
